<svg width="93" height="49" viewBox="0 0 93 49" fill="none" xmlns="http://www.w3.org/2000/svg">
<g style="mix-blend-mode:multiply">
<path d="M16.7338 11.28C17.2671 12.4267 17.5338 13.72 17.5338 15.16C16.6804 15.2933 15.7338 15.3733 14.6938 15.4C13.6804 15.4267 12.7204 15.3467 11.8138 15.16C11.8938 14.84 11.8538 14.52 11.6938 14.2C11.5604 13.88 11.3471 13.6 11.0538 13.36C10.7871 13.12 10.4671 12.9467 10.0938 12.84C9.74708 12.7067 9.40042 12.6533 9.05375 12.68C8.44042 12.7867 7.97375 13.0267 7.65375 13.4C7.36042 13.7467 7.21375 14.1333 7.21375 14.56C7.21375 14.9867 7.37375 15.4133 7.69375 15.84C8.01375 16.2667 8.48042 16.5867 9.09375 16.8C10.5871 17.0133 11.9871 17.3067 13.2938 17.68C14.6004 18.0267 15.5604 18.6 16.1738 19.4C16.7604 20.36 17.1204 21.3467 17.2538 22.36C17.3871 23.3467 17.2004 24.5733 16.6938 26.04C16.0804 27.3467 15.1204 28.28 13.8138 28.84C12.5071 29.4 11.0804 29.6667 9.53375 29.64C8.17375 29.6933 6.94708 29.5733 5.85375 29.28C4.76042 28.9867 3.81375 28.5467 3.01375 27.96C2.24042 27.3733 1.62708 26.6533 1.17375 25.8C0.747083 24.9467 0.53375 23.9867 0.53375 22.92V22.8V22.72C1.41375 22.6133 2.41375 22.5867 3.53375 22.64C4.65375 22.6667 5.62708 22.68 6.45375 22.68C6.48042 23.2933 6.76042 23.8 7.29375 24.2C7.85375 24.5733 8.44042 24.8 9.05375 24.88C9.66708 24.9333 10.2271 24.8133 10.7338 24.52C11.2404 24.2267 11.4804 23.6933 11.4538 22.92C11.5338 22.28 11.3871 21.8 11.0138 21.48C10.6404 21.16 10.1471 20.92 9.53375 20.76C8.92042 20.5733 8.22708 20.4133 7.45375 20.28C6.68042 20.1467 5.92042 19.92 5.17375 19.6C3.68042 19.0933 2.58708 18.3067 1.89375 17.24C1.22708 16.1467 0.907083 15.0267 0.93375 13.88C0.987083 12.7067 1.36042 11.6267 2.05375 10.64C2.77375 9.65333 3.78708 8.98667 5.09375 8.64C5.60042 8.50667 6.21375 8.4 6.93375 8.32C7.68042 8.24 8.46708 8.2 9.29375 8.2C10.1204 8.2 10.9471 8.25333 11.7738 8.36C12.6004 8.44 13.3604 8.56 14.0538 8.72C15.3071 9.25333 16.2004 10.1067 16.7338 11.28ZM25.3416 1.68C25.7949 1.70667 26.2482 1.69333 26.7016 1.64V7C26.7016 7.34667 26.7016 7.70667 26.7016 8.08C26.7282 8.45333 26.7416 8.84 26.7416 9.24C27.5682 9.21333 28.4349 9.17333 29.3416 9.12C30.2749 9.06667 31.4216 9 32.7816 8.92C32.9682 9.13333 33.0749 9.45333 33.1016 9.88C33.1282 10.28 33.1282 10.72 33.1016 11.2C33.0749 11.68 33.0349 12.1733 32.9816 12.68C32.9549 13.16 32.9682 13.5733 33.0216 13.92H26.8216C26.8216 15.36 26.8216 16.7733 26.8216 18.16C26.8216 19.52 26.8349 20.8 26.8616 22C27.1282 22.3733 27.5149 22.6667 28.0216 22.88C28.5282 23.0933 29.0749 23.2667 29.6616 23.4C30.2482 23.5067 30.8349 23.5733 31.4216 23.6C32.0349 23.6267 32.5682 23.6267 33.0216 23.6C33.0749 23.9733 33.1282 24.3867 33.1816 24.84C33.2349 25.2933 33.2749 25.76 33.3016 26.24C33.3282 26.72 33.3149 27.2 33.2616 27.68C33.2349 28.16 33.1549 28.6 33.0216 29C31.9549 29.0533 30.8482 29.0533 29.7016 29C28.5549 28.92 27.4749 28.76 26.4616 28.52C25.4482 28.28 24.5416 27.92 23.7416 27.44C22.9682 26.96 22.4082 26.3067 22.0616 25.48C21.7149 23.4267 21.5149 21.4933 21.4616 19.68C21.4082 17.84 21.3949 15.9467 21.4216 14C20.9949 14.0267 20.5416 14.04 20.0616 14.04C19.6082 14.04 19.1016 14.04 18.5416 14.04L18.6616 9.16C19.1949 9.18667 19.6882 9.2 20.1416 9.2C20.6216 9.2 21.0749 9.2 21.5016 9.2C21.5016 8.61333 21.4882 7.98667 21.4616 7.32C21.4349 6.62667 21.4216 5.93333 21.4216 5.24C21.4216 4.54667 21.4216 3.88 21.4216 3.24C21.4482 2.6 21.4882 2.02667 21.5416 1.52C21.8882 1.46667 22.2616 1.45333 22.6616 1.48C23.0882 1.50667 23.5282 1.54666 23.9816 1.6C24.4349 1.62667 24.8882 1.65333 25.3416 1.68ZM40.4503 10C40.477 10.08 40.4903 10.2133 40.4903 10.4C40.597 10.3467 40.837 10.24 41.2103 10.08C41.6103 9.92 41.997 9.77333 42.3703 9.64C42.877 9.48 43.4503 9.36 44.0903 9.28C44.7303 9.17333 45.3303 9.10667 45.8903 9.08C46.4503 9.05333 46.917 9.05333 47.2903 9.08C47.6903 9.08 47.8903 9.09333 47.8903 9.12C47.8903 10.0267 47.877 10.8267 47.8503 11.52C47.8503 12.2133 47.8503 12.84 47.8503 13.4C47.8503 13.9333 47.8503 14.4267 47.8503 14.88C47.8503 15.3333 47.8636 15.76 47.8903 16.16L47.5303 16.04C47.397 15.9867 47.2503 15.9467 47.0903 15.92C46.957 15.8667 46.8236 15.8133 46.6903 15.76C46.3703 15.68 46.037 15.6133 45.6903 15.56C45.3703 15.5067 45.197 15.48 45.1703 15.48C44.4503 15.4 43.7836 15.36 43.1703 15.36C42.5836 15.36 42.0636 15.4533 41.6103 15.64C41.1836 15.8267 40.8503 16.12 40.6103 16.52C40.3703 16.92 40.2636 17.4933 40.2903 18.24C40.317 19.1733 40.3436 20.0533 40.3703 20.88C40.397 21.7067 40.4103 22.5467 40.4103 23.4C40.4103 24.2267 40.4103 25.08 40.4103 25.96C40.437 26.8133 40.4503 27.7333 40.4503 28.72V28.88C39.997 29.0133 39.5836 29.0933 39.2103 29.12C38.837 29.1467 38.4503 29.1467 38.0503 29.12C37.6503 29.12 37.2103 29.1067 36.7303 29.08C36.277 29.0533 35.7303 29.0667 35.0903 29.12C35.0903 25.84 35.0503 22.56 34.9703 19.28C34.917 16 34.9436 12.6 35.0503 9.08C35.3703 9.10667 35.637 9.13333 35.8503 9.16C36.0636 9.16 36.2636 9.16 36.4503 9.16C36.637 9.16 36.837 9.16 37.0503 9.16C37.2636 9.13333 37.5303 9.10667 37.8503 9.08C37.957 9.08 38.1436 9.06667 38.4103 9.04C38.7036 9.01333 38.997 8.98667 39.2903 8.96C39.6103 8.93333 39.877 8.93333 40.0903 8.96C40.3303 8.96 40.4503 8.98667 40.4503 9.04C40.4503 9.25333 40.4503 9.41333 40.4503 9.52C40.4503 9.62667 40.4503 9.72 40.4503 9.8C40.4503 9.85333 40.4503 9.92 40.4503 10ZM52.4169 8.88C53.0302 8.90667 53.7635 8.90667 54.6169 8.88H55.2969V9C55.2702 12.2267 55.2035 15.52 55.0969 18.88C55.0169 22.24 55.0702 25.5333 55.2569 28.76C55.1235 28.92 54.7902 29 54.2569 29C53.7235 29.0267 53.1369 29.0267 52.4969 29C51.8835 29 51.2969 28.9867 50.7369 28.96C50.1769 28.9333 49.8035 28.9467 49.6169 29C49.7502 27.32 49.8035 25.6133 49.7769 23.88C49.7769 22.1467 49.7502 20.4267 49.6969 18.72C49.6435 17.0133 49.6169 15.3333 49.6169 13.68C49.6169 12 49.6969 10.3733 49.8569 8.8V8.76C49.9635 8.73333 50.1369 8.73333 50.3769 8.76C50.6435 8.78667 50.8435 8.8 50.9769 8.8C51.3235 8.82667 51.8035 8.85333 52.4169 8.88ZM49.7369 3.28C49.6835 2.42667 49.6702 1.38667 49.6969 0.159999L55.1369 0.279998C55.1369 0.439999 55.1369 0.733332 55.1369 1.16C55.1635 1.56 55.1769 2.01333 55.1769 2.52C55.2035 3 55.2169 3.50667 55.2169 4.04C55.2435 4.54667 55.2569 5 55.2569 5.4C55.1502 5.56 54.8969 5.66667 54.4969 5.72C54.1235 5.77333 53.6702 5.8 53.1369 5.8C52.6302 5.77333 52.0835 5.74667 51.4969 5.72C50.9102 5.66667 50.3635 5.65333 49.8569 5.68C49.8569 4.90667 49.8169 4.10667 49.7369 3.28ZM63.2981 35.44C63.2981 35.7333 63.2848 36.1467 63.2581 36.68V37.12C63.2581 37.1467 63.0715 37.1733 62.6981 37.2C62.3515 37.2533 61.9115 37.28 61.3781 37.28C60.8715 37.3067 60.3248 37.3067 59.7381 37.28C59.1515 37.28 58.6448 37.24 58.2181 37.16V34.52C58.2181 32.3067 58.1915 30.0933 58.1381 27.88C58.0848 25.6667 58.0315 23.4933 57.9781 21.36C57.9515 19.2 57.9248 17.0933 57.8981 15.04C57.8981 12.96 57.9248 10.96 57.9781 9.04C58.8048 9.04 59.7115 9.02667 60.6981 9C61.6848 8.94667 62.5781 8.97333 63.3781 9.08C63.4048 9.13333 63.4181 9.22667 63.4181 9.36C63.4181 9.62667 63.4181 9.84 63.4181 10C63.4448 10.16 63.4581 10.3867 63.4581 10.68C63.5115 10.8133 63.5648 10.92 63.6181 11C63.6981 11.0533 63.7781 11 63.8581 10.84C64.2581 10.04 64.7915 9.53333 65.4581 9.32C66.1248 9.08 66.8315 9.01333 67.5781 9.12C69.0981 9.22667 70.2981 9.62667 71.1781 10.32C72.0581 10.9867 72.7115 11.8533 73.1381 12.92C73.5915 13.96 73.8848 15.1333 74.0181 16.44C74.1515 17.7467 74.2448 19.0667 74.2981 20.4C74.2981 21.3333 74.2315 22.24 74.0981 23.12C73.9915 24 73.8048 24.8133 73.5381 25.56C73.2981 26.28 72.9648 26.9067 72.5381 27.44C72.1381 27.9467 71.6448 28.3067 71.0581 28.52C70.3381 28.7867 69.5381 28.9467 68.6581 29C67.8048 29.08 66.9915 29.08 66.2181 29C65.4448 28.9467 64.7915 28.8267 64.2581 28.64C63.7248 28.4533 63.4315 28.24 63.3781 28C63.4048 29.2533 63.4181 30.2667 63.4181 31.04C63.4181 31.8133 63.4181 32.4267 63.4181 32.88C63.4181 33.36 63.4048 33.72 63.3781 33.96C63.3781 34.2267 63.3648 34.4667 63.3381 34.68C63.3381 34.92 63.3248 35.1733 63.2981 35.44ZM68.2581 23.72C68.9248 23.24 69.3248 22.5333 69.4581 21.6C69.5915 21.2267 69.6715 20.84 69.6981 20.44C69.7248 20.04 69.7381 19.6533 69.7381 19.28C69.7381 18.6133 69.6581 17.9733 69.4981 17.36C69.3381 16.72 69.0981 16.16 68.7781 15.68C68.4581 15.1733 68.0715 14.7733 67.6181 14.48C67.1648 14.1867 66.6581 14.04 66.0981 14.04C65.4048 14.04 64.8715 14.1867 64.4981 14.48C64.1248 14.7733 63.8315 15.1733 63.6181 15.68C63.4315 16.1867 63.3115 16.8 63.2581 17.52C63.2315 18.24 63.2181 19.0133 63.2181 19.84C63.2181 20.88 63.2315 21.7067 63.2581 22.32C63.3115 22.9067 63.4181 23.36 63.5781 23.68C63.7381 24 63.9781 24.2133 64.2981 24.32C64.6448 24.4 65.0981 24.44 65.6581 24.44C66.7515 24.44 67.6181 24.2 68.2581 23.72ZM82.6528 19.08C82.0661 19.0533 81.6395 19.0133 81.3728 18.96V19.68C81.3995 20.48 81.4261 21.1333 81.4528 21.64C81.5061 22.1467 81.6795 22.64 81.9728 23.12C82.2928 23.7333 82.7461 24.1867 83.3328 24.48C83.9195 24.7733 84.4928 24.8667 85.0528 24.76C85.6128 24.6533 86.0795 24.3333 86.4528 23.8C86.8528 23.24 87.0261 22.4133 86.9728 21.32C87.2395 21.3467 87.5995 21.36 88.0528 21.36C88.5061 21.3333 88.9728 21.3067 89.4528 21.28C89.9595 21.2533 90.4395 21.2533 90.8928 21.28C91.3461 21.28 91.7195 21.32 92.0128 21.4C91.9595 22.0933 91.9061 22.7733 91.8528 23.44C91.7995 24.1067 91.7328 24.7333 91.6528 25.32C91.5728 25.88 91.4661 26.3733 91.3328 26.8C91.2261 27.2 91.0795 27.48 90.8928 27.64C90.4395 28.28 89.8528 28.7333 89.1328 29C88.4128 29.2667 87.6261 29.4267 86.7728 29.48C85.9195 29.5333 85.0395 29.5333 84.1328 29.48C83.2528 29.4267 82.4395 29.4 81.6928 29.4C80.9461 29.2933 80.2528 29.0533 79.6128 28.68C78.8928 28.1733 78.2928 27.52 77.8128 26.72C77.3328 25.8933 76.9461 25 76.6528 24.04C76.3595 23.0533 76.1595 22.0133 76.0528 20.92C75.9461 19.8267 75.9195 18.7333 75.9728 17.64C76.0528 16.6533 76.1328 15.7067 76.2128 14.8C76.3195 13.8667 76.5328 12.96 76.8528 12.08C77.1995 11.3067 77.7328 10.6533 78.4528 10.12C79.1728 9.56 79.9861 9.14667 80.8928 8.88C81.7995 8.58667 82.7595 8.42667 83.7728 8.4C84.7861 8.37333 85.7728 8.48 86.7328 8.72C87.9595 8.93333 88.9461 9.36 89.6928 10C90.4395 10.64 90.9995 11.4133 91.3728 12.32C91.7728 13.2267 92.0128 14.2267 92.0928 15.32C92.1728 16.4133 92.1728 17.52 92.0928 18.64C91.9061 18.6933 91.5461 18.7467 91.0128 18.8C90.5061 18.8533 89.8928 18.9067 89.1728 18.96C88.4795 19.0133 87.7328 19.0533 86.9328 19.08C86.1328 19.1067 85.3595 19.12 84.6128 19.12C83.8928 19.12 83.2395 19.1067 82.6528 19.08ZM87.3328 13.84C87.0661 13.36 86.6928 13 86.2128 12.76C85.9995 12.6267 85.7861 12.5333 85.5728 12.48C85.3595 12.4 85.1061 12.36 84.8128 12.36C84.1728 12.36 83.6528 12.4267 83.2528 12.56C82.8528 12.6933 82.5328 12.88 82.2928 13.12C82.0528 13.36 81.8661 13.64 81.7328 13.96C81.6261 14.28 81.5461 14.6133 81.4928 14.96C81.4395 15.2533 81.4128 15.4667 81.4128 15.6C81.4395 15.7067 81.5728 15.7867 81.8128 15.84C82.0528 15.8667 82.4261 15.88 82.9328 15.88C83.4661 15.8533 84.2395 15.84 85.2528 15.84C85.9461 15.84 86.4661 15.8533 86.8128 15.88C87.1595 15.9067 87.3995 15.92 87.5328 15.92C87.6928 15.8933 87.7728 15.8533 87.7728 15.8C87.7728 15.72 87.7728 15.5733 87.7728 15.36C87.7728 14.8267 87.6261 14.32 87.3328 13.84ZM8.48413 40.912C8.69746 41.3707 8.80413 41.888 8.80413 42.464C8.46279 42.5173 8.08413 42.5493 7.66813 42.56C7.26279 42.5707 6.87879 42.5387 6.51613 42.464C6.54813 42.336 6.53213 42.208 6.46813 42.08C6.41479 41.952 6.32946 41.84 6.21213 41.744C6.10546 41.648 5.97746 41.5787 5.82812 41.536C5.68946 41.4827 5.55079 41.4613 5.41213 41.472C5.16679 41.5147 4.98013 41.6107 4.85213 41.76C4.73479 41.8987 4.67613 42.0533 4.67613 42.224C4.67613 42.3947 4.74013 42.5653 4.86813 42.736C4.99613 42.9067 5.18279 43.0347 5.42813 43.12C6.02546 43.2053 6.58546 43.3227 7.10813 43.472C7.63079 43.6107 8.01479 43.84 8.26013 44.16C8.49479 44.544 8.63879 44.9387 8.69213 45.344C8.74546 45.7387 8.67079 46.2293 8.46813 46.816C8.22279 47.3387 7.83879 47.712 7.31613 47.936C6.79346 48.16 6.22279 48.2667 5.60413 48.256C5.06013 48.2773 4.56946 48.2293 4.13213 48.112C3.69479 47.9947 3.31613 47.8187 2.99613 47.584C2.68679 47.3493 2.44146 47.0613 2.26013 46.72C2.08946 46.3787 2.00413 45.9947 2.00413 45.568V45.52V45.488C2.35613 45.4453 2.75613 45.4347 3.20413 45.456C3.65213 45.4667 4.04146 45.472 4.37213 45.472C4.38279 45.7173 4.49479 45.92 4.70813 46.08C4.93213 46.2293 5.16679 46.32 5.41213 46.352C5.65746 46.3733 5.88146 46.3253 6.08413 46.208C6.28679 46.0907 6.38279 45.8773 6.37213 45.568C6.40413 45.312 6.34546 45.12 6.19613 44.992C6.04679 44.864 5.84946 44.768 5.60413 44.704C5.35879 44.6293 5.08146 44.5653 4.77213 44.512C4.46279 44.4587 4.15879 44.368 3.86013 44.24C3.26279 44.0373 2.82546 43.7227 2.54813 43.296C2.28146 42.8587 2.15346 42.4107 2.16413 41.952C2.18546 41.4827 2.33479 41.0507 2.61213 40.656C2.90013 40.2613 3.30546 39.9947 3.82812 39.856C4.03079 39.8027 4.27613 39.76 4.56413 39.728C4.86279 39.696 5.17746 39.68 5.50813 39.68C5.83879 39.68 6.16946 39.7013 6.50013 39.744C6.83079 39.776 7.13479 39.824 7.41213 39.888C7.91346 40.1013 8.27079 40.4427 8.48413 40.912ZM13.5273 47.536C13.5379 47.4187 13.5379 47.2853 13.5273 47.136C13.4739 47.168 13.4046 47.2053 13.3193 47.248C13.2446 47.2907 13.1806 47.3333 13.1273 47.376C12.9033 47.536 12.6526 47.664 12.3753 47.76C12.0979 47.856 11.8099 47.9093 11.5113 47.92C11.2233 47.9307 10.9406 47.8987 10.6633 47.824C10.3859 47.7493 10.1353 47.616 9.91125 47.424C9.80458 47.328 9.71925 47.1307 9.65525 46.832C9.60192 46.5227 9.56458 46.1547 9.54325 45.728C9.53258 45.3013 9.52725 44.8373 9.52725 44.336C9.53792 43.824 9.54858 43.312 9.55925 42.8C9.56992 42.2773 9.58058 41.776 9.59125 41.296C9.60192 40.816 9.59658 40.3947 9.57525 40.032C9.94858 39.9787 10.2793 39.9573 10.5673 39.968C10.8659 39.968 11.2019 39.968 11.5753 39.968C11.5966 40.2133 11.6073 40.4907 11.6073 40.8C11.6073 41.1093 11.6019 41.4293 11.5913 41.76C11.5913 42.0907 11.5913 42.4213 11.5913 42.752C11.6019 43.0827 11.6179 43.392 11.6393 43.68C11.6499 43.808 11.6606 43.952 11.6713 44.112C11.6819 44.2613 11.6979 44.4107 11.7193 44.56C11.7513 44.7093 11.7886 44.8427 11.8313 44.96C11.8846 45.0773 11.9539 45.168 12.0393 45.232C12.0499 45.2427 12.0606 45.248 12.0713 45.248C12.0819 45.248 12.0926 45.2533 12.1033 45.264C12.1886 45.3067 12.3113 45.344 12.4713 45.376C12.6419 45.3973 12.8073 45.3867 12.9673 45.344C13.1273 45.2907 13.2713 45.1947 13.3993 45.056C13.5273 44.9067 13.6019 44.688 13.6233 44.4C13.6446 44.0373 13.6499 43.6747 13.6393 43.312C13.6286 42.9493 13.6126 42.592 13.5913 42.24C13.5806 41.8773 13.5699 41.52 13.5593 41.168C13.5593 40.816 13.5859 40.464 13.6393 40.112V40.048C13.8206 39.9947 13.9753 39.9627 14.1033 39.952C14.2419 39.9413 14.3806 39.9413 14.5193 39.952C14.6579 39.952 14.8126 39.9573 14.9833 39.968C15.1539 39.9787 15.3673 39.9733 15.6233 39.952C15.6233 41.264 15.6339 42.576 15.6553 43.888C15.6873 45.2 15.6819 46.56 15.6393 47.968C15.5113 47.9573 15.4046 47.952 15.3193 47.952C15.2339 47.9413 15.1539 47.936 15.0793 47.936C15.0046 47.936 14.9246 47.9413 14.8393 47.952C14.7539 47.952 14.6473 47.9573 14.5193 47.968C14.4766 47.968 14.4019 47.9787 14.2953 48C14.1886 48.0107 14.0819 48.0213 13.9753 48.032C13.8686 48.0427 13.7726 48.0427 13.6873 48.032C13.6019 48.032 13.5593 48.016 13.5593 47.984C13.5379 47.8027 13.5273 47.6533 13.5273 47.536ZM18.6824 36.72C18.8317 36.7307 18.9064 36.7413 18.9064 36.752V36.928C18.917 37.1413 18.9224 37.3067 18.9224 37.424C18.933 37.5307 18.9384 37.632 18.9384 37.728C18.949 37.8133 18.9544 37.9093 18.9544 38.016C18.965 38.112 18.9704 38.256 18.9704 38.448C18.9704 38.6293 18.9704 38.8747 18.9704 39.184C18.9704 39.4933 18.965 39.8987 18.9544 40.4C18.9757 40.304 19.093 40.2187 19.3064 40.144C19.5197 40.0693 19.781 40.0213 20.0904 40C20.3997 39.968 20.725 39.968 21.0664 40C21.4184 40.0213 21.7384 40.0853 22.0264 40.192C22.261 40.2773 22.4584 40.4267 22.6184 40.64C22.789 40.8427 22.9224 41.0933 23.0184 41.392C23.125 41.68 23.1997 42 23.2424 42.352C23.2957 42.704 23.3224 43.0667 23.3224 43.44C23.301 43.9733 23.2637 44.5013 23.2104 45.024C23.157 45.5467 23.0397 46.0213 22.8584 46.448C22.6877 46.864 22.4264 47.2107 22.0744 47.488C21.7224 47.7547 21.2424 47.9093 20.6344 47.952C20.3357 47.9947 20.053 47.9733 19.7864 47.888C19.5197 47.792 19.3064 47.584 19.1464 47.264C19.1144 47.2 19.0824 47.184 19.0504 47.216C19.029 47.2373 19.0077 47.2747 18.9864 47.328C18.9864 47.4453 18.981 47.536 18.9704 47.6C18.9704 47.664 18.9704 47.7493 18.9704 47.856C18.9704 47.9093 18.965 47.9467 18.9544 47.968C18.6344 48.0107 18.277 48.0213 17.8824 48C17.4877 47.9893 17.125 47.984 16.7944 47.984C16.773 47.216 16.7624 46.4213 16.7624 45.6C16.773 44.768 16.7837 43.9253 16.7944 43.072C16.8157 42.208 16.837 41.3333 16.8584 40.448C16.8797 39.5627 16.8904 38.6773 16.8904 37.792V36.736C17.061 36.704 17.2637 36.688 17.4984 36.688C17.733 36.6773 17.9517 36.6773 18.1544 36.688C18.3677 36.688 18.5437 36.6987 18.6824 36.72ZM21.4824 43.424C21.4717 43.264 21.4397 43.1093 21.3864 42.96C21.333 42.5867 21.173 42.304 20.9064 42.112C20.6504 41.92 20.3037 41.824 19.8664 41.824C19.6424 41.824 19.461 41.8453 19.3224 41.888C19.1944 41.92 19.0984 42 19.0344 42.128C18.9704 42.256 18.9277 42.4427 18.9064 42.688C18.8957 42.9227 18.8904 43.248 18.8904 43.664C18.8904 44.0053 18.8957 44.32 18.9064 44.608C18.9277 44.8853 18.9757 45.1253 19.0504 45.328C19.1357 45.5307 19.253 45.6907 19.4024 45.808C19.5517 45.9253 19.765 45.984 20.0424 45.984C20.2664 45.984 20.469 45.9253 20.6504 45.808C20.8317 45.6907 20.9864 45.536 21.1144 45.344C21.2424 45.1413 21.3384 44.9173 21.4024 44.672C21.4664 44.416 21.4984 44.1547 21.4984 43.888C21.4984 43.7387 21.493 43.584 21.4824 43.424ZM26.3283 40.464C26.3283 40.5813 26.3336 40.7147 26.3443 40.864C26.3976 40.832 26.4616 40.7947 26.5363 40.752C26.6216 40.7093 26.6909 40.6667 26.7443 40.624C26.9683 40.464 27.2189 40.336 27.4963 40.24C27.7736 40.144 28.0563 40.0907 28.3443 40.08C28.6429 40.0693 28.9309 40.1013 29.2083 40.176C29.4856 40.2507 29.7363 40.384 29.9603 40.576C30.0136 40.6293 30.0669 40.72 30.1203 40.848C30.1736 40.816 30.2376 40.784 30.3123 40.752C30.3869 40.7093 30.4509 40.6667 30.5043 40.624C30.7283 40.464 30.9789 40.336 31.2563 40.24C31.5336 40.144 31.8163 40.0907 32.1042 40.08C32.4029 40.0693 32.6909 40.1013 32.9683 40.176C33.2456 40.2507 33.4963 40.384 33.7203 40.576C33.8269 40.672 33.9069 40.8747 33.9603 41.184C34.0243 41.4827 34.0616 41.8453 34.0723 42.272C34.0936 42.6987 34.0989 43.168 34.0883 43.68C34.0883 44.1813 34.0829 44.6933 34.0723 45.216C34.0616 45.728 34.0509 46.224 34.0403 46.704C34.0296 47.184 34.0349 47.6053 34.0563 47.968C33.6829 48.0213 33.3469 48.0427 33.0483 48.032C32.7603 48.032 32.4296 48.032 32.0563 48.032C32.0349 47.7867 32.0243 47.5093 32.0243 47.2C32.0243 46.8907 32.0243 46.5707 32.0243 46.24C32.0349 45.9093 32.0349 45.5787 32.0243 45.248C32.0243 44.9173 32.0136 44.608 31.9923 44.32C31.9816 44.192 31.9709 44.0533 31.9603 43.904C31.9496 43.744 31.9283 43.5893 31.8963 43.44C31.8749 43.2907 31.8376 43.1573 31.7843 43.04C31.7416 42.9227 31.6776 42.832 31.5923 42.768C31.5816 42.7573 31.5709 42.752 31.5603 42.752C31.5496 42.752 31.5389 42.7467 31.5283 42.736C31.4643 42.704 31.3843 42.6773 31.2883 42.656C31.1923 42.6347 31.0856 42.624 30.9683 42.624C30.8616 42.624 30.7496 42.6453 30.6323 42.688C30.5256 42.72 30.4243 42.7733 30.3283 42.848C30.3389 43.264 30.3389 43.7067 30.3283 44.176C30.3176 44.6347 30.3069 45.0933 30.2963 45.552C30.2856 46 30.2749 46.4373 30.2643 46.864C30.2643 47.28 30.2749 47.648 30.2963 47.968C29.9229 48.0213 29.5869 48.0427 29.2883 48.032C29.0003 48.032 28.6696 48.032 28.2963 48.032C28.2749 47.7867 28.2643 47.5093 28.2643 47.2C28.2643 46.8907 28.2643 46.5707 28.2643 46.24C28.2749 45.9093 28.2749 45.5787 28.2643 45.248C28.2643 44.9173 28.2536 44.608 28.2323 44.32C28.2216 44.192 28.2109 44.0533 28.2003 43.904C28.1896 43.744 28.1683 43.5893 28.1363 43.44C28.1149 43.2907 28.0776 43.1573 28.0243 43.04C27.9816 42.9227 27.9176 42.832 27.8323 42.768C27.8216 42.7573 27.8109 42.752 27.8003 42.752C27.7896 42.752 27.7789 42.7467 27.7682 42.736C27.6829 42.6933 27.5549 42.6613 27.3843 42.64C27.2243 42.608 27.0643 42.6187 26.9043 42.672C26.7443 42.7147 26.6003 42.8107 26.4723 42.96C26.3443 43.0987 26.2696 43.312 26.2483 43.6C26.2269 43.9733 26.2216 44.3413 26.2323 44.704C26.2429 45.056 26.2536 45.4133 26.2643 45.776C26.2856 46.128 26.2963 46.48 26.2963 46.832C26.2963 47.184 26.2749 47.536 26.2323 47.888V47.952C26.0509 48.0053 25.8909 48.0373 25.7523 48.048C25.6243 48.0587 25.4909 48.0587 25.3523 48.048C25.2136 48.048 25.0589 48.0427 24.8883 48.032C24.7176 48.0213 24.5043 48.0267 24.2483 48.048C24.2483 46.736 24.2323 45.424 24.2003 44.112C24.1789 42.8 24.1896 41.44 24.2323 40.032C24.3603 40.0427 24.4669 40.0533 24.5523 40.064C24.6376 40.064 24.7176 40.064 24.7923 40.064C24.8669 40.064 24.9469 40.064 25.0323 40.064C25.1176 40.0533 25.2243 40.0427 25.3523 40.032C25.3949 40.032 25.4696 40.0267 25.5763 40.016C25.6829 39.9947 25.7896 39.9787 25.8963 39.968C26.0029 39.9573 26.0989 39.9573 26.1843 39.968C26.2696 39.968 26.3123 39.984 26.3123 40.016C26.3336 40.1973 26.3389 40.3467 26.3283 40.464ZM37.6018 44.032C37.3671 44.0213 37.1964 44.0053 37.0898 43.984V44.272C37.1004 44.592 37.1111 44.8533 37.1218 45.056C37.1431 45.2587 37.2124 45.456 37.3298 45.648C37.4578 45.8933 37.6391 46.0747 37.8738 46.192C38.1084 46.3093 38.3378 46.3467 38.5618 46.304C38.7858 46.2613 38.9724 46.1333 39.1218 45.92C39.2818 45.696 39.3511 45.3653 39.3298 44.928C39.4364 44.9387 39.5804 44.944 39.7618 44.944C39.9431 44.9333 40.1298 44.9227 40.3218 44.912C40.5244 44.9013 40.7164 44.9013 40.8978 44.912C41.0791 44.912 41.2284 44.928 41.3458 44.96C41.3244 45.2373 41.3031 45.5093 41.2818 45.776C41.2604 46.0427 41.2338 46.2933 41.2018 46.528C41.1698 46.752 41.1271 46.9493 41.0738 47.12C41.0311 47.28 40.9724 47.392 40.8978 47.456C40.7164 47.712 40.4818 47.8933 40.1938 48C39.9058 48.1067 39.5911 48.1707 39.2498 48.192C38.9084 48.2133 38.5564 48.2133 38.1938 48.192C37.8418 48.1707 37.5164 48.16 37.2178 48.16C36.9191 48.1173 36.6418 48.0213 36.3858 47.872C36.0978 47.6693 35.8578 47.408 35.6658 47.088C35.4738 46.7573 35.3191 46.4 35.2018 46.016C35.0844 45.6213 35.0044 45.2053 34.9618 44.768C34.9191 44.3307 34.9084 43.8933 34.9298 43.456C34.9618 43.0613 34.9938 42.6827 35.0258 42.32C35.0684 41.9467 35.1538 41.584 35.2818 41.232C35.4204 40.9227 35.6338 40.6613 35.9218 40.448C36.2098 40.224 36.5351 40.0587 36.8978 39.952C37.2604 39.8347 37.6444 39.7707 38.0498 39.76C38.4551 39.7493 38.8498 39.792 39.2338 39.888C39.7244 39.9733 40.1191 40.144 40.4178 40.4C40.7164 40.656 40.9404 40.9653 41.0898 41.328C41.2498 41.6907 41.3458 42.0907 41.3778 42.528C41.4098 42.9653 41.4098 43.408 41.3778 43.856C41.3031 43.8773 41.1591 43.8987 40.9458 43.92C40.7431 43.9413 40.4978 43.9627 40.2098 43.984C39.9324 44.0053 39.6338 44.0213 39.3138 44.032C38.9938 44.0427 38.6844 44.048 38.3858 44.048C38.0978 44.048 37.8364 44.0427 37.6018 44.032ZM39.4738 41.936C39.3671 41.744 39.2178 41.6 39.0258 41.504C38.9404 41.4507 38.8551 41.4133 38.7698 41.392C38.6844 41.36 38.5831 41.344 38.4658 41.344C38.2098 41.344 38.0018 41.3707 37.8418 41.424C37.6818 41.4773 37.5538 41.552 37.4578 41.648C37.3618 41.744 37.2871 41.856 37.2338 41.984C37.1911 42.112 37.1591 42.2453 37.1378 42.384C37.1164 42.5013 37.1058 42.5867 37.1058 42.64C37.1164 42.6827 37.1698 42.7147 37.2658 42.736C37.3618 42.7467 37.5111 42.752 37.7138 42.752C37.9271 42.7413 38.2364 42.736 38.6418 42.736C38.9191 42.736 39.1271 42.7413 39.2658 42.752C39.4044 42.7627 39.5004 42.768 39.5538 42.768C39.6178 42.7573 39.6498 42.7413 39.6498 42.72C39.6498 42.688 39.6498 42.6293 39.6498 42.544C39.6498 42.3307 39.5911 42.128 39.4738 41.936ZM44.3911 40.464C44.3911 40.5813 44.3965 40.7147 44.4071 40.864C44.4605 40.832 44.5245 40.7947 44.5991 40.752C44.6845 40.7093 44.7538 40.6667 44.8071 40.624C45.0311 40.464 45.2818 40.336 45.5591 40.24C45.8365 40.144 46.1191 40.0907 46.4071 40.08C46.7058 40.0693 46.9938 40.1013 47.2711 40.176C47.5485 40.2507 47.7991 40.384 48.0231 40.576C48.1298 40.672 48.2098 40.8747 48.2631 41.184C48.3271 41.4827 48.3645 41.8453 48.3751 42.272C48.3965 42.6987 48.4018 43.168 48.3911 43.68C48.3911 44.1813 48.3858 44.6933 48.3751 45.216C48.3645 45.728 48.3538 46.224 48.3431 46.704C48.3325 47.184 48.3378 47.6053 48.3591 47.968C47.9858 48.0213 47.6498 48.0427 47.3511 48.032C47.0631 48.032 46.7325 48.032 46.3591 48.032C46.3378 47.7867 46.3271 47.5093 46.3271 47.2C46.3271 46.8907 46.3271 46.5707 46.3271 46.24C46.3378 45.9093 46.3378 45.5787 46.3271 45.248C46.3271 44.9173 46.3165 44.608 46.2951 44.32C46.2845 44.192 46.2738 44.0533 46.2631 43.904C46.2525 43.744 46.2311 43.5893 46.1991 43.44C46.1778 43.2907 46.1405 43.1573 46.0871 43.04C46.0445 42.9227 45.9805 42.832 45.8951 42.768C45.8845 42.7573 45.8738 42.752 45.8631 42.752C45.8525 42.752 45.8418 42.7467 45.8311 42.736C45.7458 42.6933 45.6178 42.6613 45.4471 42.64C45.2871 42.608 45.1271 42.6187 44.9671 42.672C44.8071 42.7147 44.6631 42.8107 44.5351 42.96C44.4071 43.0987 44.3325 43.312 44.3111 43.6C44.2898 43.9733 44.2845 44.3413 44.2951 44.704C44.3058 45.056 44.3165 45.4133 44.3271 45.776C44.3485 46.128 44.3591 46.48 44.3591 46.832C44.3591 47.184 44.3378 47.536 44.2951 47.888V47.952C44.1138 48.0053 43.9538 48.0373 43.8151 48.048C43.6871 48.0587 43.5538 48.0587 43.4151 48.048C43.2765 48.048 43.1218 48.0427 42.9511 48.032C42.7805 48.0213 42.5671 48.0267 42.3111 48.048C42.3111 46.736 42.2951 45.424 42.2631 44.112C42.2418 42.8 42.2525 41.44 42.2951 40.032C42.4231 40.0427 42.5298 40.0533 42.6151 40.064C42.7005 40.064 42.7805 40.064 42.8551 40.064C42.9298 40.064 43.0098 40.064 43.0951 40.064C43.1805 40.0533 43.2871 40.0427 43.4151 40.032C43.4578 40.032 43.5325 40.0267 43.6391 40.016C43.7458 39.9947 43.8525 39.9787 43.9591 39.968C44.0658 39.9573 44.1618 39.9573 44.2471 39.968C44.3325 39.968 44.3751 39.984 44.3751 40.016C44.3965 40.1973 44.4018 40.3467 44.3911 40.464ZM53.4023 47.536C53.4129 47.4187 53.4129 47.2853 53.4023 47.136C53.3489 47.168 53.2796 47.2053 53.1943 47.248C53.1196 47.2907 53.0556 47.3333 53.0023 47.376C52.7783 47.536 52.5276 47.664 52.2503 47.76C51.9729 47.856 51.6849 47.9093 51.3863 47.92C51.0983 47.9307 50.8156 47.8987 50.5383 47.824C50.2609 47.7493 50.0103 47.616 49.7863 47.424C49.6796 47.328 49.5943 47.1307 49.5303 46.832C49.4769 46.5227 49.4396 46.1547 49.4183 45.728C49.4076 45.3013 49.4023 44.8373 49.4023 44.336C49.4129 43.824 49.4236 43.312 49.4342 42.8C49.4449 42.2773 49.4556 41.776 49.4663 41.296C49.4769 40.816 49.4716 40.3947 49.4503 40.032C49.8236 39.9787 50.1543 39.9573 50.4423 39.968C50.7409 39.968 51.0769 39.968 51.4503 39.968C51.4716 40.2133 51.4823 40.4907 51.4823 40.8C51.4823 41.1093 51.4769 41.4293 51.4663 41.76C51.4663 42.0907 51.4663 42.4213 51.4663 42.752C51.4769 43.0827 51.4929 43.392 51.5143 43.68C51.5249 43.808 51.5356 43.952 51.5463 44.112C51.5569 44.2613 51.5729 44.4107 51.5943 44.56C51.6263 44.7093 51.6636 44.8427 51.7063 44.96C51.7596 45.0773 51.8289 45.168 51.9143 45.232C51.9249 45.2427 51.9356 45.248 51.9463 45.248C51.9569 45.248 51.9676 45.2533 51.9783 45.264C52.0636 45.3067 52.1863 45.344 52.3463 45.376C52.5169 45.3973 52.6823 45.3867 52.8423 45.344C53.0023 45.2907 53.1463 45.1947 53.2743 45.056C53.4023 44.9067 53.4769 44.688 53.4983 44.4C53.5196 44.0373 53.5249 43.6747 53.5143 43.312C53.5036 42.9493 53.4876 42.592 53.4663 42.24C53.4556 41.8773 53.4449 41.52 53.4343 41.168C53.4343 40.816 53.4609 40.464 53.5143 40.112V40.048C53.6956 39.9947 53.8503 39.9627 53.9783 39.952C54.1169 39.9413 54.2556 39.9413 54.3943 39.952C54.5329 39.952 54.6876 39.9573 54.8583 39.968C55.0289 39.9787 55.2423 39.9733 55.4983 39.952C55.4983 41.264 55.5089 42.576 55.5303 43.888C55.5623 45.2 55.5569 46.56 55.5143 47.968C55.3863 47.9573 55.2796 47.952 55.1943 47.952C55.1089 47.9413 55.0289 47.936 54.9543 47.936C54.8796 47.936 54.7996 47.9413 54.7143 47.952C54.6289 47.952 54.5223 47.9573 54.3943 47.968C54.3516 47.968 54.2769 47.9787 54.1703 48C54.0636 48.0107 53.9569 48.0213 53.8503 48.032C53.7436 48.0427 53.6476 48.0427 53.5623 48.032C53.4769 48.032 53.4343 48.016 53.4343 47.984C53.4129 47.8027 53.4023 47.6533 53.4023 47.536ZM65.6005 44.88C65.7818 44.88 65.9312 44.896 66.0485 44.928C66.0272 45.2053 66.0058 45.4773 65.9845 45.744C65.9632 46.0107 65.9365 46.2613 65.9045 46.496C65.8725 46.72 65.8298 46.9173 65.7765 47.088C65.7338 47.248 65.6752 47.3653 65.6005 47.44C65.4192 47.696 65.1792 47.8773 64.8805 47.984C64.5925 48.0907 64.2778 48.1547 63.9365 48.176C63.5952 48.208 63.2432 48.208 62.8805 48.176C62.5178 48.1547 62.1872 48.144 61.8885 48.144C61.3445 48.048 60.8858 47.8133 60.5125 47.44C60.2245 47.184 60.0272 46.864 59.9205 46.48C59.8138 46.096 59.7498 45.696 59.7285 45.28C59.7072 44.8533 59.7018 44.4267 59.7125 44C59.7338 43.5733 59.7232 43.184 59.6805 42.832C59.6805 42.448 59.7125 42.064 59.7765 41.68C59.7872 41.5627 59.8245 41.4027 59.8885 41.2C59.9525 40.9973 60.0005 40.8427 60.0325 40.736C60.1072 40.576 60.2245 40.4373 60.3845 40.32C60.5552 40.2027 60.7472 40.1067 60.9605 40.032C61.1845 39.9467 61.4192 39.888 61.6645 39.856C61.9205 39.824 62.1765 39.808 62.4325 39.808C62.6458 39.8293 62.8485 39.8347 63.0405 39.824C63.2432 39.8027 63.4565 39.8027 63.6805 39.824C64.0218 39.8453 64.3472 39.9093 64.6565 40.016C64.9658 40.1227 65.2325 40.2827 65.4565 40.496C65.6058 40.6027 65.7178 40.7467 65.7925 40.928C65.8778 41.1093 65.9418 41.3227 65.9845 41.568C66.0272 41.8133 66.0485 42.0907 66.0485 42.4C66.0592 42.6987 66.0698 43.024 66.0805 43.376C65.9418 43.408 65.7818 43.424 65.6005 43.424C65.4298 43.424 65.2485 43.4187 65.0565 43.408C64.8752 43.3973 64.6938 43.3813 64.5125 43.36C64.3418 43.3387 64.1872 43.3173 64.0485 43.296C63.9952 42.9227 63.8405 42.6347 63.5845 42.432C63.3285 42.2187 62.9925 42.1653 62.5765 42.272C62.3525 42.336 62.1712 42.4533 62.0325 42.624C61.9685 42.6667 61.9205 42.7733 61.8885 42.944C61.8458 43.2747 61.8245 43.6107 61.8245 43.952C61.8245 44.2933 61.8138 44.6507 61.7925 45.024C61.7712 45.2693 61.8298 45.4613 61.9685 45.6C62.1178 45.7387 62.2938 45.8347 62.4965 45.888C62.6992 45.9307 62.9072 45.9413 63.1205 45.92C63.3338 45.888 63.5045 45.8293 63.6325 45.744C63.7392 45.6693 63.8192 45.5467 63.8725 45.376C63.9365 45.1947 63.9845 45.0347 64.0165 44.896C64.1232 44.9067 64.2672 44.912 64.4485 44.912C64.6298 44.9013 64.8218 44.8907 65.0245 44.88C65.2272 44.8693 65.4192 44.8693 65.6005 44.88ZM66.8706 39.28C66.8706 38.3093 66.9186 37.3387 67.0146 36.368L69.1906 36.416C69.1906 36.8533 69.1853 37.3813 69.1746 38C69.164 38.6187 69.1533 39.28 69.1426 39.984C69.132 40.688 69.1213 41.4187 69.1106 42.176C69.1106 42.9333 69.1106 43.664 69.1106 44.368C69.1106 45.072 69.116 45.7333 69.1266 46.352C69.1373 46.96 69.1533 47.4773 69.1746 47.904C69.1213 47.968 68.988 48 68.7746 48C68.5613 48.0107 68.3266 48.0107 68.0706 48C67.8253 48 67.5906 47.9947 67.3666 47.984C67.1426 47.9733 66.9933 47.9787 66.9186 48C66.9933 47.04 67.02 46.0747 66.9986 45.104C66.988 44.1333 66.9666 43.1627 66.9346 42.192C66.9026 41.2213 66.8813 40.2507 66.8706 39.28ZM70.2635 41.184C70.3275 40.9813 70.3755 40.8213 70.4075 40.704C70.4822 40.544 70.5995 40.4053 70.7595 40.288C70.9302 40.1707 71.1222 40.0747 71.3355 40C71.5595 39.9147 71.7942 39.856 72.0395 39.824C72.2955 39.792 72.5515 39.776 72.8075 39.776C73.0208 39.7973 73.2235 39.8027 73.4155 39.792C73.6182 39.7707 73.8315 39.7707 74.0555 39.792C74.3968 39.8133 74.7222 39.8827 75.0315 40C75.3408 40.1067 75.6075 40.2667 75.8315 40.48C75.9808 40.576 76.0982 40.7307 76.1835 40.944C76.2688 41.1573 76.3328 41.408 76.3755 41.696C76.4182 41.9733 76.4448 42.2827 76.4555 42.624C76.4662 42.9547 76.4768 43.296 76.4875 43.648C76.4768 43.9573 76.4608 44.3093 76.4395 44.704C76.4288 45.0987 76.4022 45.4773 76.3595 45.84C76.3275 46.2027 76.2795 46.528 76.2155 46.816C76.1622 47.104 76.0822 47.3013 75.9755 47.408C75.7942 47.664 75.5542 47.8453 75.2555 47.952C74.9675 48.0587 74.6528 48.1227 74.3115 48.144C73.9702 48.176 73.6182 48.176 73.2555 48.144C72.8928 48.1227 72.5622 48.112 72.2635 48.112C71.7195 48.016 71.2608 47.7813 70.8875 47.408C70.5995 47.152 70.4022 46.832 70.2955 46.448C70.1888 46.064 70.1248 45.664 70.1035 45.248C70.0822 44.8213 70.0768 44.3947 70.0875 43.968C70.1088 43.5413 70.1035 43.152 70.0715 42.8C70.0715 42.608 70.0768 42.4213 70.0875 42.24C70.0982 42.048 70.1195 41.8507 70.1515 41.648C70.1622 41.5307 70.1995 41.376 70.2635 41.184ZM72.9515 42.24C72.7275 42.304 72.5462 42.4213 72.4075 42.592C72.3435 42.6347 72.2955 42.7413 72.2635 42.912C72.2208 43.2533 72.1995 43.5947 72.1995 43.936C72.1995 44.2667 72.1888 44.6187 72.1675 44.992C72.1568 45.2373 72.2208 45.4293 72.3595 45.568C72.4982 45.696 72.6635 45.7867 72.8555 45.84C73.0582 45.8827 73.2662 45.8933 73.4795 45.872C73.6928 45.84 73.8688 45.7867 74.0075 45.712C74.1888 45.6267 74.3115 45.4507 74.3755 45.184C74.4182 44.8427 74.4502 44.5013 74.4715 44.16C74.5035 43.808 74.4875 43.4773 74.4235 43.168C74.3702 42.7947 74.2155 42.5227 73.9595 42.352C73.7035 42.1813 73.3675 42.144 72.9515 42.24ZM79.5474 40.464C79.5474 40.5813 79.5527 40.7147 79.5634 40.864C79.6167 40.832 79.6807 40.7947 79.7554 40.752C79.8407 40.7093 79.91 40.6667 79.9634 40.624C80.1874 40.464 80.438 40.336 80.7154 40.24C80.9927 40.144 81.2754 40.0907 81.5634 40.08C81.862 40.0693 82.15 40.1013 82.4274 40.176C82.7047 40.2507 82.9554 40.384 83.1794 40.576C83.286 40.672 83.366 40.8747 83.4194 41.184C83.4834 41.4827 83.5207 41.8453 83.5314 42.272C83.5527 42.6987 83.558 43.168 83.5474 43.68C83.5474 44.1813 83.542 44.6933 83.5314 45.216C83.5207 45.728 83.51 46.224 83.4994 46.704C83.4887 47.184 83.494 47.6053 83.5154 47.968C83.142 48.0213 82.806 48.0427 82.5074 48.032C82.2194 48.032 81.8887 48.032 81.5154 48.032C81.494 47.7867 81.4834 47.5093 81.4834 47.2C81.4834 46.8907 81.4834 46.5707 81.4834 46.24C81.494 45.9093 81.494 45.5787 81.4834 45.248C81.4834 44.9173 81.4727 44.608 81.4514 44.32C81.4407 44.192 81.43 44.0533 81.4194 43.904C81.4087 43.744 81.3874 43.5893 81.3554 43.44C81.334 43.2907 81.2967 43.1573 81.2434 43.04C81.2007 42.9227 81.1367 42.832 81.0514 42.768C81.0407 42.7573 81.03 42.752 81.0194 42.752C81.0087 42.752 80.998 42.7467 80.9874 42.736C80.902 42.6933 80.774 42.6613 80.6034 42.64C80.4434 42.608 80.2834 42.6187 80.1234 42.672C79.9634 42.7147 79.8194 42.8107 79.6914 42.96C79.5634 43.0987 79.4887 43.312 79.4674 43.6C79.446 43.9733 79.4407 44.3413 79.4514 44.704C79.462 45.056 79.4727 45.4133 79.4834 45.776C79.5047 46.128 79.5154 46.48 79.5154 46.832C79.5154 47.184 79.494 47.536 79.4514 47.888V47.952C79.27 48.0053 79.11 48.0373 78.9714 48.048C78.8434 48.0587 78.71 48.0587 78.5714 48.048C78.4327 48.048 78.278 48.0427 78.1074 48.032C77.9367 48.0213 77.7234 48.0267 77.4674 48.048C77.4674 46.736 77.4514 45.424 77.4194 44.112C77.398 42.8 77.4087 41.44 77.4514 40.032C77.5794 40.0427 77.686 40.0533 77.7714 40.064C77.8567 40.064 77.9367 40.064 78.0114 40.064C78.086 40.064 78.166 40.064 78.2514 40.064C78.3367 40.0533 78.4434 40.0427 78.5714 40.032C78.614 40.032 78.6887 40.0267 78.7954 40.016C78.902 39.9947 79.0087 39.9787 79.1154 39.968C79.222 39.9573 79.318 39.9573 79.4034 39.968C79.4887 39.968 79.5314 39.984 79.5314 40.016C79.5527 40.1973 79.558 40.3467 79.5474 40.464ZM87.0705 44.032C86.8358 44.0213 86.6652 44.0053 86.5585 43.984V44.272C86.5692 44.592 86.5798 44.8533 86.5905 45.056C86.6118 45.2587 86.6812 45.456 86.7985 45.648C86.9265 45.8933 87.1078 46.0747 87.3425 46.192C87.5772 46.3093 87.8065 46.3467 88.0305 46.304C88.2545 46.2613 88.4412 46.1333 88.5905 45.92C88.7505 45.696 88.8198 45.3653 88.7985 44.928C88.9052 44.9387 89.0492 44.944 89.2305 44.944C89.4118 44.9333 89.5985 44.9227 89.7905 44.912C89.9932 44.9013 90.1852 44.9013 90.3665 44.912C90.5478 44.912 90.6972 44.928 90.8145 44.96C90.7932 45.2373 90.7718 45.5093 90.7505 45.776C90.7292 46.0427 90.7025 46.2933 90.6705 46.528C90.6385 46.752 90.5958 46.9493 90.5425 47.12C90.4998 47.28 90.4412 47.392 90.3665 47.456C90.1852 47.712 89.9505 47.8933 89.6625 48C89.3745 48.1067 89.0598 48.1707 88.7185 48.192C88.3772 48.2133 88.0252 48.2133 87.6625 48.192C87.3105 48.1707 86.9852 48.16 86.6865 48.16C86.3878 48.1173 86.1105 48.0213 85.8545 47.872C85.5665 47.6693 85.3265 47.408 85.1345 47.088C84.9425 46.7573 84.7878 46.4 84.6705 46.016C84.5532 45.6213 84.4732 45.2053 84.4305 44.768C84.3878 44.3307 84.3772 43.8933 84.3985 43.456C84.4305 43.0613 84.4625 42.6827 84.4945 42.32C84.5372 41.9467 84.6225 41.584 84.7505 41.232C84.8892 40.9227 85.1025 40.6613 85.3905 40.448C85.6785 40.224 86.0038 40.0587 86.3665 39.952C86.7292 39.8347 87.1132 39.7707 87.5185 39.76C87.9238 39.7493 88.3185 39.792 88.7025 39.888C89.1932 39.9733 89.5878 40.144 89.8865 40.4C90.1852 40.656 90.4092 40.9653 90.5585 41.328C90.7185 41.6907 90.8145 42.0907 90.8465 42.528C90.8785 42.9653 90.8785 43.408 90.8465 43.856C90.7718 43.8773 90.6278 43.8987 90.4145 43.92C90.2118 43.9413 89.9665 43.9627 89.6785 43.984C89.4012 44.0053 89.1025 44.0213 88.7825 44.032C88.4625 44.0427 88.1532 44.048 87.8545 44.048C87.5665 44.048 87.3052 44.0427 87.0705 44.032ZM88.9425 41.936C88.8358 41.744 88.6865 41.6 88.4945 41.504C88.4092 41.4507 88.3238 41.4133 88.2385 41.392C88.1532 41.36 88.0518 41.344 87.9345 41.344C87.6785 41.344 87.4705 41.3707 87.3105 41.424C87.1505 41.4773 87.0225 41.552 86.9265 41.648C86.8305 41.744 86.7558 41.856 86.7025 41.984C86.6598 42.112 86.6278 42.2453 86.6065 42.384C86.5852 42.5013 86.5745 42.5867 86.5745 42.64C86.5852 42.6827 86.6385 42.7147 86.7345 42.736C86.8305 42.7467 86.9798 42.752 87.1825 42.752C87.3958 42.7413 87.7052 42.736 88.1105 42.736C88.3878 42.736 88.5958 42.7413 88.7345 42.752C88.8732 42.7627 88.9692 42.768 89.0225 42.768C89.0865 42.7573 89.1185 42.7413 89.1185 42.72C89.1185 42.688 89.1185 42.6293 89.1185 42.544C89.1185 42.3307 89.0598 42.128 88.9425 41.936Z" fill="url(#paint0_linear_6_3)"/>
</g>
<defs>
<linearGradient id="paint0_linear_6_3" x1="46" y1="57.5" x2="46" y2="-9" gradientUnits="userSpaceOnUse">
<stop offset="0.521" stop-color="white"/>
<stop offset="1" stop-opacity="0"/>
</linearGradient>
</defs>
</svg>
